# xmcd
#
# Track frame offsets:
# 150
# 33759
# 100061
# 120134
# 150280
# 181584
# 204300
# 232245
# 269708
# 301868
#
# Disc length: 4238 seconds
#
# Revision: 0
# Processed by: cddbd v1.4b42PL1 Copyright (c) Steve Scherf et al.
# Submitted via: Audion 2.5.0 (http://www.panic.com/audion/)
#
DISCID=6e108c0a
DTITLE=Derek and the Dominos - woody's mix
DYEAR=1900
DGENRE=
TTITLE0=blues power
TTITLE1=why does love got to be so sad
TTITLE2=evil
TTITLE3=tell me the truth
TTITLE4=have you ever loved a woman
TTITLE5=nobody knows when youre down and out
TTITLE6=little wing
TTITLE7=crossroads
TTITLE8=hourglass
TTITLE9=snake lake blues
EXTD=
EXTT0=
EXTT1=
EXTT2=
EXTT3=
EXTT4=
EXTT5=
EXTT6=
EXTT7=
EXTT8=
EXTT9=
PLAYORDER=
